<svg width="24" height="24" viewBox="0 0 24 24" fill="none" xmlns="http://www.w3.org/2000/svg">
<path d="M22.0102 15.5633L22.0109 15.5659L22.0109 15.5659C22.1775 16.1908 21.8186 16.8695 21.185 16.992L15.2478 18.5567C15.3216 19.7232 14.569 20.8123 13.4004 21.1164C12.2322 21.4433 11.0181 20.8702 10.5099 19.8297L9.53051 20.0967L9.52946 20.097C9.32195 20.1488 9.10627 20.0453 9.05193 19.8293C9.05188 19.8292 9.05184 19.829 9.0518 19.8288L5.05583 5.11524L3.15679 5.59009L3.14467 5.54159L3.15679 5.59009C2.66761 5.7124 2.13082 5.41953 1.98428 4.90645M22.0102 15.5633L2.03235 4.89271M22.0102 15.5633L22.0102 15.5631L21.5701 13.9419C21.57 13.9417 21.57 13.9416 21.5699 13.9414C21.5156 13.7254 21.2999 13.622 21.0924 13.6737L21.0919 13.6739L19.4481 14.1017L17.6072 7.26778C17.6072 7.26764 17.6071 7.2675 17.6071 7.26736C17.5528 7.0513 17.3371 6.9478 17.1296 6.99959L17.1287 6.99981L13.5385 7.96023L12.5554 4.32466C12.5553 4.3245 12.5553 4.32435 12.5553 4.32419C12.5009 4.10816 12.2852 4.00468 12.0777 4.05647L12.0771 4.05663L7.44408 5.27223M22.0102 15.5633L7.44408 5.27223M1.98428 4.90645L2.03235 4.89271M1.98428 4.90645C1.98428 4.90645 1.98428 4.90645 1.98428 4.90645L2.03235 4.89271M1.98428 4.90645C1.83695 4.39074 2.15686 3.87817 2.66749 3.73233L2.66916 3.73185L2.66917 3.73188L6.39939 2.8052M2.03235 4.89271C1.89335 4.40614 2.19449 3.91942 2.68123 3.7804L6.41224 2.85353M6.39939 2.8052C6.3991 2.80528 6.39882 2.80536 6.39853 2.80544L6.41224 2.85353M6.39939 2.8052L6.40019 2.805L6.41224 2.85353M6.39939 2.8052C6.58712 2.75218 6.80093 2.85932 6.85458 3.07278L6.85448 3.07239L6.80618 3.08533M6.41224 2.85353C6.57437 2.80729 6.75979 2.89992 6.80618 3.08533M6.80618 3.08533L6.85468 3.07319M6.80618 3.08533L7.40866 5.33321L6.85468 3.07319M6.85468 3.07319L7.44408 5.27223M6.85468 3.07319L7.44408 5.27223M5.69548 4.57859L5.69555 4.57857L5.69466 4.57589C5.64281 4.42053 5.48733 4.28679 5.3228 4.28679H5.25329V4.28532L5.2414 4.28823L2.97039 4.84445L2.97038 4.84441L2.96856 4.84493C2.90035 4.8644 2.84749 4.85275 2.80878 4.8273C2.76892 4.8011 2.73981 4.75737 2.72648 4.70651C2.69967 4.60414 2.73901 4.49137 2.85679 4.45443L6.21445 3.60935L9.86283 17.0483C9.86287 17.0485 9.86291 17.0486 9.86296 17.0488C9.91729 17.2648 10.133 17.3683 10.3405 17.3165L10.3409 17.3164L10.8072 17.1954C10.3552 17.7407 10.1772 18.4623 10.2721 19.1303L9.69195 19.2704L5.69548 4.57859ZM11.0948 19.2924L11.0947 19.2923C10.8018 18.3461 11.3422 17.3784 12.2879 17.1307L12.2884 17.1306C13.2798 16.8603 14.2479 17.5141 14.4277 18.4131L14.4277 18.4132L14.4279 18.4141C14.63 19.3353 14.0467 20.1691 13.1886 20.4177C12.287 20.6655 11.3646 20.1695 11.0948 19.2924ZM20.9754 16.2926L15.0636 17.8567C14.8149 17.2186 14.2794 16.7014 13.6324 16.4618C14.2561 16.2964 14.9238 16.1196 15.6118 15.9374C17.3835 15.4681 19.2904 14.9631 20.9301 14.5248L21.2647 15.7743L21.2648 15.7745C21.3272 16.0037 21.203 16.23 20.9764 16.2923C20.9762 16.2924 20.976 16.2925 20.9758 16.2925L20.9754 16.2926ZM18.7255 14.3125L10.5027 16.4884L8.74449 10.0267L16.9673 7.85077L18.7255 14.3125ZM7.65536 6.01759L11.9153 4.88459L12.7931 8.14821L8.53301 9.28121L7.65536 6.01759Z" fill="#5D6679" stroke="#5D6679" stroke-width="0.1"/>
</svg>
