<svg width="24" height="24" viewBox="0 0 24 24" fill="none" xmlns="http://www.w3.org/2000/svg">
<path d="M7.187 21.3776L7.18698 21.3776L7.18863 21.3793C7.21922 21.4098 7.25378 21.4368 7.2959 21.4555C7.33846 21.4744 7.38353 21.4826 7.43226 21.4826H21.753C21.8498 21.4826 21.9382 21.4499 22.0028 21.3854C22.0673 21.321 22.1 21.2325 22.1 21.1356L22.0998 6.81485C22.0998 6.6871 22.0357 6.57088 21.9191 6.52642L15.2813 2.59282C15.2551 2.55776 15.2202 2.53749 15.1847 2.52738C15.1493 2.51729 15.1121 2.51736 15.0901 2.5174L15.0863 2.5174H2.24698C2.15022 2.5174 2.06177 2.55007 1.99725 2.61455C1.93273 2.67904 1.9 2.76751 1.9 2.86438V15.7037C1.9 15.7524 1.90821 15.7974 1.92709 15.84C1.94561 15.8817 1.97221 15.916 2.0025 15.9465C2.00279 15.9468 2.00307 15.947 2.00335 15.9473L7.187 21.3776ZM21.406 20.7886H7.77908V7.1617H12.5173V10.7653C12.5173 10.8621 12.5499 10.9506 12.6144 11.0151C12.6789 11.0796 12.7674 11.1123 12.8643 11.1123H16.0741C16.1709 11.1123 16.2593 11.0797 16.3239 11.0152C16.3884 10.9507 16.4211 10.8622 16.4211 10.7653L16.4209 7.1617H21.406L21.406 20.7886ZM13.2111 10.4184V7.16179H15.7272V10.4184H13.2111ZM11.5402 3.21114H14.9849L20.4748 6.46779H16.4253L11.5402 3.21114ZM12.9685 6.46796L8.08336 3.21129L10.2908 3.21114L15.1759 6.46781L12.9685 6.46796ZM7.54007 6.46796L3.28304 3.21114L6.83396 3.21114L11.7191 6.4678L7.54007 6.46796ZM2.59407 15.5647V3.56023L7.08535 6.98775V20.2688L2.59407 15.5647Z" fill="#5D6679" stroke="#5D6679" stroke-width="0.2"/>
</svg>
