<svg width="24" height="24" viewBox="0 0 24 24" fill="none" xmlns="http://www.w3.org/2000/svg">
<path d="M11.9999 2.00018C6.48613 2.00018 2 6.48631 2 12.0001C2 14.4654 2.89843 16.7233 4.38279 18.4684C4.4018 18.4977 4.4236 18.5254 4.44906 18.5508C4.45482 18.5566 4.46127 18.5603 4.46702 18.5657C6.30174 20.6679 8.99734 21.9998 12 21.9998C15.0027 21.9998 17.6982 20.6679 19.533 18.5657C19.5387 18.5604 19.5455 18.5564 19.5509 18.5508C19.5764 18.5254 19.5984 18.4973 19.6172 18.4684C21.1016 16.7231 22 14.4652 22 12.0001C22 6.48631 17.5139 2.00018 12.0001 2.00018H11.9999ZM11.9999 21C9.44414 21 7.13567 19.9276 5.49595 18.2111L6.18095 17.5261C6.84273 16.8645 7.72232 16.5 8.65758 16.5H15.3424C16.2776 16.5 17.1572 16.8645 17.8188 17.5259L18.5038 18.2109C16.8642 19.9274 14.5557 21 11.9998 21H11.9999ZM19.1561 17.4492L18.5259 16.819C17.6754 15.9685 16.5449 15.4999 15.3424 15.4999H8.65758C7.455 15.4999 6.32465 15.9685 5.47417 16.819L4.84395 17.4492C3.68829 15.9356 2.99999 14.047 2.99999 12.0001C2.99999 7.03769 7.03719 3.00022 11.9999 3.00022C16.9624 3.00022 20.9999 7.03742 20.9999 12.0001C20.9999 14.0471 20.3116 15.9357 19.1561 17.4492H19.1561ZM11.9999 6.50019C9.79449 6.50019 7.99986 8.2946 7.99986 10.5003C7.99986 12.7057 9.79427 14.5003 11.9999 14.5003C14.2054 14.5003 16 12.7059 16 10.5003C16 8.2946 14.2054 6.50019 11.9999 6.50019ZM11.9999 13.5001C10.3457 13.5001 8.99999 12.1544 8.99999 10.5002C8.99999 8.84598 10.3457 7.50027 11.9999 7.50027C13.6541 7.50027 14.9999 8.84602 14.9999 10.5002C14.9999 12.1544 13.6541 13.5001 11.9999 13.5001Z" fill="#5D6679"/>
</svg>
